<svg width="640" height="200" version="1.1" viewBox="0 0 640 200" xmlns="http://www.w3.org/2000/svg">
 <title>D:\Antonio\Courses\Ironhack\Module3\Project3\resources\logo</title>
 <defs>
  <filter id="filter12845" x="-.027916" y="-.106" width="1.0536" height="1.1976" color-interpolation-filters="sRGB">
   <feGaussianBlur stdDeviation="16.164052"/>
  </filter>
 </defs>
 <path transform="matrix(.26458 0 0 .26458 -44.513 -66.419)" d="m403.41 314.13c-29.721 57.584-75.23 106.81-136.53 147.67l30.649 50.153c65.014-48.296 113.31-98.449 144.89-150.46 13.003 0 15.789-4.6438 8.3589-13.932zm136.53 11.145v139.32h-86.375v52.94h86.375v404.01h55.726v-404.01h94.734v-52.94h-94.734v-122.6c13.003-9.2877 12.074-14.86-2.7863-16.718zm167.18 25.077v52.94h156.03v-52.94zm-58.512 2.7863-39.008 30.649c13.003 20.433 26.005 41.795 39.008 64.085l44.581-36.222c-14.86-26.006-29.721-45.51-44.581-58.512zm1410.7 53.767c-35.506 0-63.563 8.5672-84.17 25.686-20.606 16.802-30.91 40.414-30.91 70.848 0 15.534 2.6938 28.856 8.0831 39.952 5.3895 11.096 12.205 20.605 20.448 28.531 8.5595 7.6085 17.436 14.1 26.63 19.49 9.1935 5.0723 17.746 9.5178 25.672 13.322 12.681 6.0234 23.942 11.72 33.77 17.11 9.8277 5.0723 17.6 10.622 23.306 16.645 6.0235 6.0234 9.0266 13.325 9.0266 21.884 0 10.462-3.7981 19.176-11.406 26.151-7.2915 6.6574-19.819 9.9843-37.572 9.9843-17.119 0-34.401-2.8557-51.837-8.5621-17.119-6.0234-33.753-12.515-49.921-19.49v67.045c28.215 13.632 60.232 20.447 96.055 20.447 39.944 0 70.696-8.8764 92.253-26.63 21.874-18.07 32.812-42.167 32.812-72.284 0-17.753-3.3269-32.65-9.9842-44.697-6.6575-12.047-16.167-22.513-28.531-31.389-12.047-8.8766-26.796-17.429-44.233-25.672-21.24-10.145-37.242-18.712-48.02-25.686-10.779-6.9744-16.166-16.484-16.166-28.531 0-10.145 3.6361-18.388 10.928-24.728 7.2913-6.3404 17.758-9.5054 31.389-9.5054 12.998 0 25.672 1.7516 38.036 5.2388 12.364 3.4872 26.319 8.3893 41.853 14.73l23.306-56.103c-17.753-7.6085-34.564-13.482-50.415-17.603-15.851-4.1213-32.647-6.1821-50.4-6.1821zm-890.2 4.7599v318.13c0 16.802-1.8991 29.476-5.7033 38.036-3.8042 8.8766-9.1919 14.897-16.166 18.067-6.6575 3.1702-14.106 4.7599-22.349 4.7599-6.3402 0-12.214-0.47112-17.603-1.4222-5.7063-0.95106-11.094-2.0697-16.166-3.3378v59.92c5.0722 1.5851 11.093 2.8511 18.067 3.8021 6.9746 0.95106 15.056 1.4367 24.25 1.4367 21.24 0 39.95-4.1217 56.118-12.364 16.168-7.9255 28.695-20.924 37.572-38.994 9.1935-17.753 13.786-41.217 13.786-70.383v-317.65zm155.02 0v218.74c0 37.725 11.732 68.167 35.192 91.31 23.459 22.825 57.699 34.234 102.72 34.234 31.385 0 57.543-5.3877 78.466-16.166 20.923-11.096 36.453-25.993 46.598-44.697 10.462-19.021 15.688-40.263 15.688-63.722v-219.7h-71.805v207.33c0 26.313-5.3878 45.655-16.167 58.019-10.462 12.364-27.419 18.546-50.879 18.546-22.508 0-39.466-5.5496-50.879-16.645-11.413-11.413-17.124-31.226-17.124-59.441v-207.81zm328.6 0v59.92h92.253v279.6h71.805v-279.6h92.253v-59.92zm568.26 0v218.74c0 37.725 11.732 68.167 35.192 91.31 23.46 22.825 57.699 34.234 102.72 34.234 31.385 0 57.529-5.3877 78.452-16.166 20.923-11.096 36.468-25.993 46.613-44.697 10.462-19.021 15.687-40.263 15.687-63.722v-219.7h-71.805v207.33c0 26.313-5.3877 45.655-16.166 58.019-10.462 12.364-27.42 18.546-50.879 18.546-22.508 0-39.466-5.5496-50.879-16.645-11.413-11.413-17.124-31.226-17.124-59.441v-207.81zm-1825.9 38.994c-35.293 81.732-81.732 144.89-139.32 189.47l27.863 55.726c20.433-18.575 38.08-36.222 52.94-52.94v300.92h55.726v-373.36c16.718-27.863 30.649-54.797 41.795-80.803 13.003 0 14.86-4.6438 5.5726-13.932zm300.92 72.444v52.94h66.871v303.71c0 5.5726-2.7865 8.3589-8.359 8.3589h-52.94l11.145 52.94h58.512c31.578 0 47.367-15.789 47.367-47.367v-317.64h69.658v-52.94zm-236.84 66.871c-1.8575 72.444-14.86 146.75-39.008 222.9l52.94 19.504c26.006-79.874 38.079-152.32 36.222-217.33 11.145-7.4302 11.145-13.003 0-16.718zm214.55 0-50.153 5.5726c16.718 52.011 26.006 116.1 27.863 192.26l52.94-5.5726c-5.5727-72.444-15.789-136.53-30.649-192.26z" fill="none" filter="url(#filter12845)" stroke="#20c997" stroke-linecap="round" stroke-width="37.795" style="mix-blend-mode:normal;shape-inside:url(#rect132-0);white-space:pre"/>
 <path transform="matrix(.26458 0 0 .26458 -44.513 -66.419)" d="m403.41 314.13c-29.721 57.584-75.23 106.81-136.53 147.67l30.649 50.153c65.014-48.296 113.31-98.449 144.89-150.46 13.003 0 15.789-4.6438 8.3589-13.932zm136.53 11.145v139.32h-86.375v52.94h86.375v404.01h55.726v-404.01h94.734v-52.94h-94.734v-122.6c13.003-9.2877 12.074-14.86-2.7863-16.718zm167.18 25.077v52.94h156.03v-52.94zm-58.512 2.7863-39.008 30.649c13.003 20.433 26.005 41.795 39.008 64.085l44.581-36.222c-14.86-26.006-29.721-45.51-44.581-58.512zm1410.7 53.767c-35.506 0-63.563 8.5672-84.17 25.686-20.606 16.802-30.91 40.414-30.91 70.848 0 15.534 2.6938 28.856 8.0831 39.952 5.3895 11.096 12.205 20.605 20.448 28.531 8.5595 7.6085 17.436 14.1 26.63 19.49 9.1935 5.0723 17.746 9.5178 25.672 13.322 12.681 6.0234 23.942 11.72 33.77 17.11 9.8277 5.0723 17.6 10.622 23.306 16.645 6.0235 6.0234 9.0266 13.325 9.0266 21.884 0 10.462-3.7981 19.176-11.406 26.151-7.2915 6.6574-19.819 9.9843-37.572 9.9843-17.119 0-34.401-2.8557-51.837-8.5621-17.119-6.0234-33.753-12.515-49.921-19.49v67.045c28.215 13.632 60.232 20.447 96.055 20.447 39.944 0 70.696-8.8764 92.253-26.63 21.874-18.07 32.812-42.167 32.812-72.284 0-17.753-3.3269-32.65-9.9842-44.697-6.6575-12.047-16.167-22.513-28.531-31.389-12.047-8.8766-26.796-17.429-44.233-25.672-21.24-10.145-37.242-18.712-48.02-25.686-10.779-6.9744-16.166-16.484-16.166-28.531 0-10.145 3.6361-18.388 10.928-24.728 7.2913-6.3404 17.758-9.5054 31.389-9.5054 12.998 0 25.672 1.7516 38.036 5.2388 12.364 3.4872 26.319 8.3893 41.853 14.73l23.306-56.103c-17.753-7.6085-34.564-13.482-50.415-17.603-15.851-4.1213-32.647-6.1821-50.4-6.1821zm-890.2 4.7599v318.13c0 16.802-1.8991 29.476-5.7033 38.036-3.8042 8.8766-9.1919 14.897-16.166 18.067-6.6575 3.1702-14.106 4.7599-22.349 4.7599-6.3402 0-12.214-0.47112-17.603-1.4222-5.7063-0.95106-11.094-2.0697-16.166-3.3378v59.92c5.0722 1.5851 11.093 2.8511 18.067 3.8021 6.9746 0.95106 15.056 1.4367 24.25 1.4367 21.24 0 39.95-4.1217 56.118-12.364 16.168-7.9255 28.695-20.924 37.572-38.994 9.1935-17.753 13.786-41.217 13.786-70.383v-317.65zm155.02 0v218.74c0 37.725 11.732 68.167 35.192 91.31 23.459 22.825 57.699 34.234 102.72 34.234 31.385 0 57.543-5.3877 78.466-16.166 20.923-11.096 36.453-25.993 46.598-44.697 10.462-19.021 15.688-40.263 15.688-63.722v-219.7h-71.805v207.33c0 26.313-5.3878 45.655-16.167 58.019-10.462 12.364-27.419 18.546-50.879 18.546-22.508 0-39.466-5.5496-50.879-16.645-11.413-11.413-17.124-31.226-17.124-59.441v-207.81zm328.6 0v59.92h92.253v279.6h71.805v-279.6h92.253v-59.92zm568.26 0v218.74c0 37.725 11.732 68.167 35.192 91.31 23.46 22.825 57.699 34.234 102.72 34.234 31.385 0 57.529-5.3877 78.452-16.166 20.923-11.096 36.468-25.993 46.613-44.697 10.462-19.021 15.687-40.263 15.687-63.722v-219.7h-71.805v207.33c0 26.313-5.3877 45.655-16.166 58.019-10.462 12.364-27.42 18.546-50.879 18.546-22.508 0-39.466-5.5496-50.879-16.645-11.413-11.413-17.124-31.226-17.124-59.441v-207.81zm-1825.9 38.994c-35.293 81.732-81.732 144.89-139.32 189.47l27.863 55.726c20.433-18.575 38.08-36.222 52.94-52.94v300.92h55.726v-373.36c16.718-27.863 30.649-54.797 41.795-80.803 13.003 0 14.86-4.6438 5.5726-13.932zm300.92 72.444v52.94h66.871v303.71c0 5.5726-2.7865 8.3589-8.359 8.3589h-52.94l11.145 52.94h58.512c31.578 0 47.367-15.789 47.367-47.367v-317.64h69.658v-52.94zm-236.84 66.871c-1.8575 72.444-14.86 146.75-39.008 222.9l52.94 19.504c26.006-79.874 38.079-152.32 36.222-217.33 11.145-7.4302 11.145-13.003 0-16.718zm214.55 0-50.153 5.5726c16.718 52.011 26.006 116.1 27.863 192.26l52.94-5.5726c-5.5727-72.444-15.789-136.53-30.649-192.26z" fill="#fff" style="shape-inside:url(#rect132-0);white-space:pre"/>
</svg>
